<svg xmlns="http://www.w3.org/2000/svg" width="256" height="256" viewBox="0 0 128 128">
  <rect x="8" y="8" width="112" height="112" rx="26" fill="#10b981"/>
  <g transform="translate(14 14) scale(0.78)" fill="none" stroke="#ffffff" stroke-width="7" stroke-linecap="round" stroke-linejoin="round">
    <path d="M36 104V30a8 8 0 0 1 8-8h40a8 8 0 0 1 8 8v74Z"/>
    <path d="M36 64H28a8 8 0 0 0-8 8v24a8 8 0 0 0 8 8h8"/>
    <path d="M92 52h8a8 8 0 0 1 8 8v36a8 8 0 0 1-8 8h-8"/>
    <path d="M52 40h24"/><path d="M52 56h24"/><path d="M52 72h24"/><path d="M52 88h24"/>
  </g>
</svg>
